<svg width="382" height="346" viewBox="0 0 382 346" fill="none" xmlns="http://www.w3.org/2000/svg">
<g filter="url(#filter0_d_10258_344)">
<path d="M25 37.5689C25 34.2551 27.6863 31.5688 31 31.5688H308.858C312.172 31.5688 314.858 34.2551 314.858 37.5688V306.196C314.858 309.509 312.172 312.196 308.858 312.196H31C27.6863 312.196 25 309.509 25 306.196V37.5689Z" fill="white" shape-rendering="crispEdges"/>
<path d="M308.857 31.0688C312.447 31.0688 315.357 33.979 315.357 37.5688V306.196C315.357 309.786 312.447 312.696 308.857 312.696H31C27.4102 312.696 24.5001 309.786 24.5 306.196V37.5688C24.5 33.979 27.4101 31.0688 31 31.0688H308.857Z" stroke="#0B363C" stroke-opacity="0.16" shape-rendering="crispEdges"/>
</g>
<g filter="url(#filter1_d_10258_344)">
<path d="M66.833 37.5689C66.833 34.2551 69.5193 31.5688 72.833 31.5688H350.691C354.005 31.5688 356.691 34.2551 356.691 37.5688V306.196C356.691 309.509 354.005 312.196 350.691 312.196H72.833C69.5193 312.196 66.833 309.509 66.833 306.196V37.5689Z" fill="white" shape-rendering="crispEdges"/>
<path d="M350.69 31.0688C354.28 31.0688 357.19 33.979 357.19 37.5688V306.196C357.19 309.786 354.28 312.696 350.69 312.696H72.833C69.2432 312.696 66.3331 309.786 66.333 306.196V37.5688C66.333 33.979 69.2432 31.0688 72.833 31.0688H350.69Z" stroke="#0B363C" stroke-opacity="0.16" shape-rendering="crispEdges"/>
</g>
<g filter="url(#filter2_d_10258_344)">
<path d="M35 27C35 23.6863 37.6863 21 41 21H340.691C344.005 21 346.691 23.6863 346.691 27V316.765C346.691 320.078 344.005 322.765 340.691 322.765H41C37.6863 322.765 35 320.078 35 316.765V27Z" fill="white" shape-rendering="crispEdges"/>
<path d="M340.69 20.5C344.28 20.5 347.19 23.4101 347.19 27V316.765C347.19 320.354 344.28 323.265 340.69 323.265H41C37.4102 323.265 34.5001 320.354 34.5 316.765V27C34.5 23.4101 37.4101 20.5 41 20.5H340.69Z" stroke="#0B363C" stroke-opacity="0.16" shape-rendering="crispEdges"/>
</g>
<path d="M57.2961 57.2344V45.3308H58.8567V51.5565L64.0033 45.3308H65.9125L61.8284 50.1785L66.0868 57.2344H64.2357L60.7991 51.4071L58.8567 53.7065V57.2344H57.2961ZM66.7848 57.2344V48.5681H68.2955V49.9378C68.7438 48.9334 69.6818 48.3274 70.9768 48.3274C72.7117 48.3274 73.7161 49.4813 73.7161 51.2162V57.2344H72.1887V51.3822C72.1887 50.2449 71.6242 49.6141 70.5368 49.6141C69.2501 49.6141 68.3121 50.5853 68.3121 52.4613V57.2344H66.7848ZM78.8218 57.4751C76.4727 57.4751 74.9453 55.6821 74.9453 52.893C74.9453 50.1038 76.4727 48.3274 78.8218 48.3274C81.171 48.3274 82.6984 50.1038 82.6984 52.893C82.6984 55.6821 81.171 57.4751 78.8218 57.4751ZM76.5474 52.893C76.5474 54.9848 77.3941 56.1801 78.8218 56.1801C80.2496 56.1801 81.0963 54.9848 81.0963 52.893C81.0963 50.8011 80.2496 49.6224 78.8218 49.6224C77.3941 49.6224 76.5474 50.8011 76.5474 52.893ZM85.5878 57.2344L83.0394 48.5681H84.6L86.3847 55.0346L88.3105 48.5681H90.0205L91.9381 55.1425L93.6979 48.5681H95.1588L92.6187 57.2344H91.1827L89.1572 50.22L87.0322 57.2344H85.5878ZM96.1058 57.2344V45.3308H97.6332V57.2344H96.1058ZM102.88 57.4751C100.622 57.4751 98.9371 56.0307 98.9371 52.8847C98.9371 50.0955 100.622 48.3274 102.88 48.3274C105.096 48.3274 106.591 49.888 106.591 52.7435V53.2582H100.514C100.622 55.2338 101.56 56.1801 102.988 56.1801C104.042 56.1801 104.823 55.5327 104.989 54.3456H106.541C106.35 56.1968 105.005 57.4751 102.88 57.4751ZM100.556 52.0297H104.964C104.856 50.3944 104.109 49.6141 102.863 49.6141C101.676 49.6141 100.772 50.4442 100.556 52.0297ZM113.514 45.3308H115.042V57.2344H113.564V55.9228C113.049 56.9189 112.103 57.4751 110.974 57.4751C108.725 57.4751 107.438 55.6821 107.438 52.9179C107.438 50.1536 108.816 48.3274 111.024 48.3274C112.087 48.3274 112.975 48.7923 113.514 49.7552V45.3308ZM109.04 52.8847C109.04 54.8022 109.787 56.1801 111.248 56.1801C112.709 56.1801 113.506 54.8022 113.506 52.8847C113.506 50.9671 112.709 49.6224 111.248 49.6224C109.787 49.6224 109.04 50.9671 109.04 52.8847ZM120.081 60.5299C117.881 60.5299 116.595 59.376 116.561 57.7075H118.105C118.188 58.7452 119.01 59.2432 120.147 59.2432C121.642 59.2432 122.439 58.3218 122.439 56.7446V55.4912C121.916 56.4126 121.002 56.9272 119.874 56.9272C117.665 56.9272 116.371 55.1591 116.371 52.6439C116.371 50.1287 117.682 48.3274 119.89 48.3274C121.027 48.3274 121.932 48.8338 122.455 49.7801V48.5681H123.974V56.6699C123.974 59.1685 122.439 60.5299 120.081 60.5299ZM117.973 52.6439C117.973 54.412 118.72 55.6572 120.181 55.6572C121.642 55.6572 122.439 54.412 122.439 52.6439C122.439 50.8758 121.642 49.639 120.181 49.639C118.72 49.639 117.973 50.8758 117.973 52.6439ZM129.213 57.4751C126.955 57.4751 125.27 56.0307 125.27 52.8847C125.27 50.0955 126.955 48.3274 129.213 48.3274C131.429 48.3274 132.923 49.888 132.923 52.7435V53.2582H126.847C126.955 55.2338 127.893 56.1801 129.321 56.1801C130.375 56.1801 131.155 55.5327 131.321 54.3456H132.874C132.683 56.1968 131.338 57.4751 129.213 57.4751ZM126.889 52.0297H131.296C131.188 50.3944 130.441 49.6141 129.196 49.6141C128.009 49.6141 127.104 50.4442 126.889 52.0297ZM137.54 57.2344V45.3308H141.857C144.073 45.3308 145.459 46.5427 145.459 48.3108C145.459 49.639 144.745 50.6268 143.666 51.0252C145.028 51.4403 145.858 52.5277 145.858 53.9389C145.858 55.873 144.513 57.2344 142.247 57.2344H137.54ZM139.101 55.8398H141.923C143.459 55.8398 144.239 55.1093 144.239 53.7978C144.239 52.5443 143.442 51.847 142.031 51.847H139.101V55.8398ZM139.101 50.4525H141.807C143.151 50.4525 143.882 49.7552 143.882 48.4934C143.882 47.3396 143.019 46.7253 141.807 46.7253H139.101V50.4525ZM149.544 57.4751C147.942 57.4751 146.705 56.5039 146.705 54.9184C146.705 53.2582 147.809 52.4696 149.436 52.204L150.814 51.9799C151.818 51.8138 152.225 51.6063 152.225 50.9754C152.225 50.3114 151.702 49.5975 150.457 49.5975C149.353 49.5975 148.606 50.2117 148.539 51.2328H146.937C146.996 49.5643 148.382 48.3274 150.457 48.3274C152.549 48.3274 153.777 49.4813 153.777 51.4569V55.2255C153.777 55.956 153.877 56.7944 154.118 56.9936V57.2344H152.499C152.408 56.9106 152.333 56.4873 152.3 56.0556C151.777 56.8774 150.764 57.4751 149.544 57.4751ZM148.299 54.8686C148.299 55.6904 148.996 56.1968 149.884 56.1968C151.378 56.1968 152.258 55.0927 152.258 53.7314V52.6273C151.926 52.9013 151.478 53.0424 150.831 53.1752L149.917 53.3578C148.813 53.5819 148.299 54.0219 148.299 54.8686ZM158.642 57.4751C156.36 57.4751 154.949 56.313 154.915 54.4452H156.517C156.567 55.5825 157.447 56.1801 158.676 56.1801C159.73 56.1801 160.444 55.6904 160.444 54.8852C160.444 54.2294 159.996 53.9057 158.983 53.6982L157.555 53.4076C155.853 53.0673 155.123 52.287 155.123 51.0833C155.123 49.5311 156.376 48.3274 158.501 48.3274C160.693 48.3274 161.838 49.5809 161.905 51.2328H160.336C160.286 50.2117 159.572 49.5975 158.468 49.5975C157.414 49.5975 156.733 50.1287 156.733 50.8924C156.733 51.4735 157.123 51.7972 157.978 51.9632L159.572 52.2704C161.141 52.5775 162.038 53.3578 162.038 54.6528C162.038 56.5039 160.543 57.4751 158.642 57.4751ZM166.753 57.4751C164.495 57.4751 162.81 56.0307 162.81 52.8847C162.81 50.0955 164.495 48.3274 166.753 48.3274C168.97 48.3274 170.464 49.888 170.464 52.7435V53.2582H164.387C164.495 55.2338 165.433 56.1801 166.861 56.1801C167.915 56.1801 168.696 55.5327 168.862 54.3456H170.414C170.223 56.1968 168.878 57.4751 166.753 57.4751ZM164.429 52.0297H168.837C168.729 50.3944 167.982 49.6141 166.737 49.6141C165.55 49.6141 164.645 50.4442 164.429 52.0297Z" fill="#112225"/>
<rect x="55.5645" y="77.8149" width="169.205" height="10.375" rx="2.55006" fill="#DCDCDC"/>
<rect x="55.5645" y="103.771" width="87.0893" height="5.72827" rx="1.40795" fill="#DCDCDC"/>
<rect x="55.5645" y="119.554" width="87.0893" height="5.72827" rx="1.40795" fill="#DCDCDC"/>
<rect x="55.5645" y="135.336" width="87.0893" height="5.72827" rx="1.40795" fill="#DCDCDC"/>
<rect x="55.5645" y="151.119" width="63.1967" height="5.72827" rx="1.40795" fill="#DCDCDC"/>
<path d="M55.5645 171.534C55.5645 170.126 56.7062 168.984 58.1145 168.984H140.104C141.512 168.984 142.654 170.126 142.654 171.534V302.191C142.654 303.599 141.512 304.741 140.104 304.741H58.1145C56.7062 304.741 55.5645 303.599 55.5645 302.191V171.534Z" fill="#DCDCDC"/>
<path d="M156.431 106.108C156.431 104.699 157.573 103.558 158.981 103.558H322.308C323.716 103.558 324.858 104.699 324.858 106.108V154.297C324.858 155.706 323.716 156.847 322.308 156.847H158.981C157.573 156.847 156.431 155.706 156.431 154.297V106.108Z" fill="#DCDCDC"/>
<path d="M156.431 171.534C156.431 170.126 157.573 168.984 158.981 168.984H322.308C323.716 168.984 324.858 170.126 324.858 171.534V195.044C324.858 196.452 323.716 197.594 322.308 197.594H158.981C157.573 197.594 156.431 196.452 156.431 195.044V171.534Z" fill="#DCDCDC"/>
<path d="M156.431 207.25C156.431 205.841 157.573 204.7 158.981 204.7H322.308C323.716 204.7 324.858 205.841 324.858 207.25V230.759C324.858 232.168 323.716 233.309 322.308 233.309H158.981C157.573 233.309 156.431 232.168 156.431 230.759V207.25Z" fill="#DCDCDC"/>
<path d="M156.431 242.965C156.431 241.557 157.573 240.415 158.981 240.415H322.308C323.716 240.415 324.858 241.557 324.858 242.965V266.475C324.858 267.884 323.716 269.025 322.308 269.025H158.981C157.573 269.025 156.431 267.884 156.431 266.475V242.965Z" fill="#DCDCDC"/>
<path d="M156.431 278.681C156.431 277.273 157.573 276.131 158.981 276.131H322.308C323.716 276.131 324.858 277.273 324.858 278.681V302.191C324.858 303.599 323.716 304.741 322.308 304.741H158.981C157.573 304.741 156.431 303.599 156.431 302.191V278.681Z" fill="#DCDCDC"/>
<path d="M313.495 50.9059C315.587 50.9059 317.283 49.2101 317.283 47.1184C317.283 45.0267 315.587 43.3309 313.495 43.3309C311.403 43.3309 309.708 45.0267 309.708 47.1184C309.708 49.2101 311.403 50.9059 313.495 50.9059Z" fill="#3A4952"/>
<path d="M313.495 58.4809C315.587 58.4809 317.283 56.7851 317.283 54.6934C317.283 52.6017 315.587 50.9059 313.495 50.9059C311.403 50.9059 309.708 52.6017 309.708 54.6934C309.708 56.7851 311.403 58.4809 313.495 58.4809Z" fill="#3A4952"/>
<path d="M321.07 50.9059C323.162 50.9059 324.858 49.2101 324.858 47.1184C324.858 45.0267 323.162 43.3309 321.07 43.3309C318.978 43.3309 317.283 45.0267 317.283 47.1184C317.283 49.2101 318.978 50.9059 321.07 50.9059Z" fill="#3A4952"/>
<defs>
<filter id="filter0_d_10258_344" x="0" y="10.5688" width="339.858" height="330.627" filterUnits="userSpaceOnUse" color-interpolation-filters="sRGB">
<feFlood flood-opacity="0" result="BackgroundImageFix"/>
<feColorMatrix in="SourceAlpha" type="matrix" values="0 0 0 0 0 0 0 0 0 0 0 0 0 0 0 0 0 0 127 0" result="hardAlpha"/>
<feOffset dy="4"/>
<feGaussianBlur stdDeviation="12"/>
<feComposite in2="hardAlpha" operator="out"/>
<feColorMatrix type="matrix" values="0 0 0 0 0.0431373 0 0 0 0 0.211765 0 0 0 0 0.235294 0 0 0 0.08 0"/>
<feBlend mode="normal" in2="BackgroundImageFix" result="effect1_dropShadow_10258_344"/>
<feBlend mode="normal" in="SourceGraphic" in2="effect1_dropShadow_10258_344" result="shape"/>
</filter>
<filter id="filter1_d_10258_344" x="41.833" y="10.5688" width="339.858" height="330.627" filterUnits="userSpaceOnUse" color-interpolation-filters="sRGB">
<feFlood flood-opacity="0" result="BackgroundImageFix"/>
<feColorMatrix in="SourceAlpha" type="matrix" values="0 0 0 0 0 0 0 0 0 0 0 0 0 0 0 0 0 0 127 0" result="hardAlpha"/>
<feOffset dy="4"/>
<feGaussianBlur stdDeviation="12"/>
<feComposite in2="hardAlpha" operator="out"/>
<feColorMatrix type="matrix" values="0 0 0 0 0.0431373 0 0 0 0 0.211765 0 0 0 0 0.235294 0 0 0 0.08 0"/>
<feBlend mode="normal" in2="BackgroundImageFix" result="effect1_dropShadow_10258_344"/>
<feBlend mode="normal" in="SourceGraphic" in2="effect1_dropShadow_10258_344" result="shape"/>
</filter>
<filter id="filter2_d_10258_344" x="10" y="0" width="361.691" height="351.765" filterUnits="userSpaceOnUse" color-interpolation-filters="sRGB">
<feFlood flood-opacity="0" result="BackgroundImageFix"/>
<feColorMatrix in="SourceAlpha" type="matrix" values="0 0 0 0 0 0 0 0 0 0 0 0 0 0 0 0 0 0 127 0" result="hardAlpha"/>
<feOffset dy="4"/>
<feGaussianBlur stdDeviation="12"/>
<feComposite in2="hardAlpha" operator="out"/>
<feColorMatrix type="matrix" values="0 0 0 0 0.0431373 0 0 0 0 0.211765 0 0 0 0 0.235294 0 0 0 0.08 0"/>
<feBlend mode="normal" in2="BackgroundImageFix" result="effect1_dropShadow_10258_344"/>
<feBlend mode="normal" in="SourceGraphic" in2="effect1_dropShadow_10258_344" result="shape"/>
</filter>
</defs>
</svg>
